<svg xmlns="http://www.w3.org/2000/svg" width="12" height="12" viewBox="0 0 21 21"><path fill="#F60" fill-rule="evenodd" d="M10.944 15.257c.795-.118 1.391-.486 1.893-.937.618-.55.927-1.249.927-2.097 0-.703-.199-1.267-.594-1.69a2.255 2.255 0 0 0-.408-.331l5.27-2.282-.682-1.438-6.709 2.906c-.847-.232-1.285-.41-1.462-.532-.193-.125-.289-.285-.289-.478 0-.214.105-.387.315-.519.21-.138.468-.207.963-.207.788 0 1.266.048 1.91.568l1.14-1.196c-.512-.588-1.428-.878-2.274-.986V4.122H9.871v1.869c-.915.038-1.625.281-2.126.729-.548.49-.79 1.171-.79 1.986 0 .814.09 1.12.65 1.587.093.078.217.162.37.25l-5.1 2.209.681 1.437 6.496-2.814c.253.076.522.15.806.22.327.083.608.362.719.471.105.111.157.262.157.455 0 .28-.064.695-.326.838-.713.388-2.79.322-3.47-.597l-1.327 1.18c.454.774 1.954 1.236 3.26 1.335v1.038h1.073v-1.058zM10.5 21C4.701 21 0 16.299 0 10.5S4.701 0 10.5 0 21 4.701 21 10.5 16.299 21 10.5 21z"/></svg>