<svg xmlns="http://www.w3.org/2000/svg" width="12" height="12" viewBox="0 0 21 21"><path fill="#26ABF5" fill-rule="evenodd" d="M10.5 21C16.299 21 21 16.299 21 10.5S16.299 0 10.5 0 0 4.701 0 10.5 4.701 21 10.5 21zm-7.831-9.49V9.673c0-.168.164-.306.364-.306h3.844l-1.674 2.45h-2.17c-.2 0-.364-.138-.364-.307zm2.735 3.716l-1.227.702c-.165.095-.282.034-.259-.133l.164-1.2c.023-.168.183-.236.357-.152l.95.457c.173.085.18.232.015.326zm.267-.634l-.95-.458c-.173-.084-.234-.272-.133-.418L8.984 7.28c.1-.146.324-.198.498-.113l.95.457c.173.085.233.273.133.419l-4.396 6.435c-.1.146-.325.196-.498.113zm3.439-2.776l1.673-2.449h.964l1.359 2.45H9.11zm5.367.641c-.38-.16-2.273-3.831-2.758-4.79-.485-.957-1.951-3.507-1.477-3.706.337-.142 1.548 1.866 2.456 3.071.907 1.206 2.802 4.314 3.036 4.668.232.355-.224.65-.477.74-.253.088-.4.176-.78.017zm1.29 1.737l-.572-.76c-.118-.158-.056-.353.135-.436l.546-.236c.192-.082.432-.016.535.15l.45.73c.103.164.033.376-.152.47l-.39.195c-.184.095-.433.043-.552-.113zm2.043 2.042c-.12-.322-1.032-.343-1.44-.828-.41-.483-.071-.732.07-.847 1.658-.784 1.37 1.675 1.37 1.675zm.885-4.726c0 .169-.164.306-.365.306h-1.924a.83.83 0 0 0-.114-.277c-.05-.076-.176-.279-.353-.562-.254-.41-.62-.994-1.012-1.61h3.403c.2 0 .364.138.364.306v1.837z"/></svg>